<svg width="14" height="12" viewBox="0 0 14 12" fill="none" xmlns="http://www.w3.org/2000/svg">
<path d="M13.362 2.33208C13.6666 3.52008 13.6666 6.00008 13.6666 6.00008C13.6666 6.00008 13.6666 8.48008 13.362 9.66808C13.1926 10.3247 12.6973 10.8414 12.07 11.0161C10.9306 11.3334 6.99998 11.3334 6.99998 11.3334C6.99998 11.3334 3.07131 11.3334 1.92998 11.0161C1.29998 10.8387 0.805313 10.3227 0.63798 9.66808C0.333313 8.48008 0.333313 6.00008 0.333313 6.00008C0.333313 6.00008 0.333313 3.52008 0.63798 2.33208C0.807313 1.67541 1.30265 1.15875 1.92998 0.984081C3.07131 0.666748 6.99998 0.666748 6.99998 0.666748C6.99998 0.666748 10.9306 0.666748 12.07 0.984081C12.7 1.16141 13.1946 1.67741 13.362 2.33208ZM5.66665 8.33341L9.66665 6.00008L5.66665 3.66675V8.33341Z" fill="white"/>
</svg>
