<svg width="14" height="14" viewBox="0 0 14 14" fill="none" xmlns="http://www.w3.org/2000/svg">
<path d="M6.99998 0.333252C8.81131 0.333252 9.03731 0.339919 9.74798 0.373252C10.458 0.406585 10.9413 0.517919 11.3666 0.683252C11.8066 0.852585 12.1773 1.08192 12.548 1.45192C12.887 1.78518 13.1493 2.18831 13.3166 2.63325C13.4813 3.05792 13.5933 3.54192 13.6266 4.25192C13.658 4.96259 13.6666 5.18859 13.6666 6.99992C13.6666 8.81125 13.66 9.03725 13.6266 9.74792C13.5933 10.4579 13.4813 10.9413 13.3166 11.3666C13.1498 11.8118 12.8874 12.215 12.548 12.5479C12.2146 12.8868 11.8115 13.1491 11.3666 13.3166C10.942 13.4813 10.458 13.5933 9.74798 13.6266C9.03731 13.6579 8.81131 13.6666 6.99998 13.6666C5.18865 13.6666 4.96265 13.6599 4.25198 13.6266C3.54198 13.5933 3.05865 13.4813 2.63331 13.3166C2.1882 13.1496 1.785 12.8872 1.45198 12.5479C1.11292 12.2147 0.850601 11.8116 0.683313 11.3666C0.51798 10.9419 0.406646 10.4579 0.373313 9.74792C0.34198 9.03725 0.333313 8.81125 0.333313 6.99992C0.333313 5.18859 0.33998 4.96259 0.373313 4.25192C0.406646 3.54125 0.51798 3.05859 0.683313 2.63325C0.850137 2.18804 1.11252 1.7848 1.45198 1.45192C1.78509 1.11274 2.18827 0.850405 2.63331 0.683252C3.05865 0.517919 3.54131 0.406585 4.25198 0.373252C4.96265 0.341919 5.18865 0.333252 6.99998 0.333252ZM6.99998 3.66659C6.11592 3.66659 5.26808 4.01777 4.64296 4.6429C4.01784 5.26802 3.66665 6.11586 3.66665 6.99992C3.66665 7.88397 4.01784 8.73182 4.64296 9.35694C5.26808 9.98206 6.11592 10.3333 6.99998 10.3333C7.88403 10.3333 8.73188 9.98206 9.357 9.35694C9.98212 8.73182 10.3333 7.88397 10.3333 6.99992C10.3333 6.11586 9.98212 5.26802 9.357 4.6429C8.73188 4.01777 7.88403 3.66659 6.99998 3.66659ZM11.3333 3.49992C11.3333 3.2789 11.2455 3.06694 11.0892 2.91066C10.933 2.75438 10.721 2.66659 10.5 2.66659C10.279 2.66659 10.067 2.75438 9.91072 2.91066C9.75444 3.06694 9.66665 3.2789 9.66665 3.49992C9.66665 3.72093 9.75444 3.93289 9.91072 4.08917C10.067 4.24545 10.279 4.33325 10.5 4.33325C10.721 4.33325 10.933 4.24545 11.0892 4.08917C11.2455 3.93289 11.3333 3.72093 11.3333 3.49992ZM6.99998 4.99992C7.53041 4.99992 8.03912 5.21063 8.41419 5.5857C8.78927 5.96078 8.99998 6.46949 8.99998 6.99992C8.99998 7.53035 8.78927 8.03906 8.41419 8.41413C8.03912 8.78921 7.53041 8.99992 6.99998 8.99992C6.46955 8.99992 5.96084 8.78921 5.58577 8.41413C5.21069 8.03906 4.99998 7.53035 4.99998 6.99992C4.99998 6.46949 5.21069 5.96078 5.58577 5.5857C5.96084 5.21063 6.46955 4.99992 6.99998 4.99992Z" fill="white"/>
</svg>
